<?xml version="1.0" encoding="UTF-8" standalone="no"?>
<!-- Generator: Adobe Illustrator 24.1.1, SVG Export Plug-In . SVG Version: 6.00 Build 0)  -->

<svg
   version="1.1"
   x="0px"
   y="0px"
   viewBox="0 0 775.4375 782.09375"
   xml:space="preserve"
   id="svg100"
   sodipodi:docname="Layer_2.svg"
   width="775.4375"
   height="782.09375"
   inkscape:version="1.2.1 (9c6d41e410, 2022-07-14)"
   xmlns:inkscape="http://www.inkscape.org/namespaces/inkscape"
   xmlns:sodipodi="http://sodipodi.sourceforge.net/DTD/sodipodi-0.dtd"
   xmlns="http://www.w3.org/2000/svg"
   xmlns:svg="http://www.w3.org/2000/svg"><defs
   id="defs104" /><sodipodi:namedview
   id="namedview102"
   pagecolor="#ffffff"
   bordercolor="#000000"
   borderopacity="0.25"
   inkscape:showpageshadow="2"
   inkscape:pageopacity="0.0"
   inkscape:pagecheckerboard="0"
   inkscape:deskcolor="#d1d1d1"
   showgrid="false"
   inkscape:zoom="0.022587608"
   inkscape:cx="395681.55"
   inkscape:cy="412482.8"
   inkscape:window-width="1920"
   inkscape:window-height="1060"
   inkscape:window-x="0"
   inkscape:window-y="20"
   inkscape:window-maximized="1"
   inkscape:current-layer="svg100" />
<style
   type="text/css"
   id="style77">
	.st0{fill:#FFFFFF;}
</style>


<rect
   style="fill:#000000"
   id="rect406"
   width="775.44257"
   height="782.09607"
   x="0"
   y="0" /><g
   id="Layer_2"
   transform="translate(-112.28125,-108.9325)"
   inkscape:export-filename="Layer_2.png"
   inkscape:export-xdpi="96"
   inkscape:export-ydpi="96">
	<path
   class="st0"
   d="m 491,493 c 0,0 -141,-6 -117,-173 0,0 4,-184 241,-196 0,0 -216,-66 -288,139 0,0 -61,251 164,240 l 9,-3 z"
   id="path85" />
	<path
   class="st0"
   d="m 489.44,504.29 c 0,0 -75.7,119.11 -208.32,14.82 0,0 -157.35,-95.46 -49.24,-306.71 0,0 -165.16,154.06 -23.62,318.92 0,0 186.87,178.33 289.85,-22.03 L 500,500 Z"
   id="path87" />
	<path
   class="st0"
   d="m 498.44,511.29 c 0,0 65.3,125.11 -91.32,187.82 0,0 -161.35,88.54 -290.24,-110.71 0,0 50.84,220.06 264.38,179.92 0,0 247.87,-72.67 125.85,-262.03 L 500,500 Z"
   id="path89" />
	<path
   class="st0"
   d="m 509,507 c 0,0 141,6 117,173 0,0 -4,184 -241,196 0,0 216,66 288,-139 0,0 61,-251 -164,-240 l -9,3 z"
   id="path91" />
	<path
   class="st0"
   d="m 510.56,495.71 c 0,0 75.7,-119.11 208.32,-14.82 0,0 157.35,95.46 49.24,306.71 0,0 165.16,-154.06 23.62,-318.92 0,0 -186.87,-178.33 -289.85,22.03 L 500,500 Z"
   id="path93" />
	<path
   class="st0"
   d="m 501.56,488.71 c 0,0 -65.3,-125.11 91.32,-187.82 0,0 161.35,-88.54 290.24,110.71 0,0 -50.84,-220.06 -264.38,-179.92 0,0 -247.87,72.67 -125.85,262.03 L 500,500 Z"
   id="path95" />
	<circle
   class="st0"
   cx="500"
   cy="500"
   r="12"
   id="circle97" />
</g>
</svg>
